<svg xmlns="http://www.w3.org/2000/svg" width="29" height="23" viewBox="0 0 29 23">
    <g fill="none" fill-rule="evenodd">
        <path fill="#333" d="M.593 8.968C2.097 3.776 5.807 0 9.414 0c.289-.002.577.022.862.071.157.029.296.12.385.253a.537.537 0 0 1 .067.445L9.985 3.33a.573.573 0 0 1-.576.405h-.058c-1.338 0-3.783 1.933-5.03 6.245-.048.172-.094.344-.14.527a6.676 6.676 0 0 1 4.58-.415 6.177 6.177 0 0 1 3.833 2.882 6.192 6.192 0 0 1 .62 4.76 6.407 6.407 0 0 1-6.18 4.534 6.696 6.696 0 0 1-1.732-.233 7.033 7.033 0 0 1-4.76-5.07c-.74-2.617-.722-5.39.051-7.997zM24.281 0a4.88 4.88 0 0 1 .861.071c.158.029.297.12.387.253.085.132.11.294.066.445l-.743 2.561a.57.57 0 0 1-.576.405h-.057c-1.339 0-3.783 1.933-5.03 6.245-.049.172-.1.344-.14.527a6.676 6.676 0 0 1 4.578-.415 6.177 6.177 0 0 1 3.834 2.882 6.192 6.192 0 0 1 .62 4.76 6.406 6.406 0 0 1-6.18 4.534 6.696 6.696 0 0 1-1.732-.233 7.033 7.033 0 0 1-4.76-5.07c-.74-2.617-.722-5.39.05-7.997C16.965 3.776 20.676 0 24.282 0z" opacity=".1"/>
    </g>
</svg>
